HIERARCHY
ROOT Hips
{
	OFFSET -3.958830 18.904000 13.208200
	CHANNELS 6 Xposition Yposition Zposition Zrotation Yrotation Xrotation 
	JOINT LHipJoint
	{
		OFFSET 0.000000 0.000000 0.000000
		CHANNELS 3 Zrotation Yrotation Xrotation
		JOINT LeftUpLeg
		{
			OFFSET 1.800000 -1.400000 0.085000
			CHANNELS 3 Zrotation Yrotation Xrotation
			JOINT LeftLeg
			{
				OFFSET 2.215000 -6.000000 0.000000
				CHANNELS 3 Zrotation Yrotation Xrotation
				JOINT LeftFoot
				{
					OFFSET 2.500000 -6.900000 0.000000
					CHANNELS 3 Zrotation Yrotation Xrotation
					JOINT LeftToeBase
					{
						OFFSET 0.200000 -0.500000 1.950000
						CHANNELS 3 Zrotation Yrotation Xrotation
						End Site
						{
							OFFSET 0.000000 0.000000 0.000000
						}
					}
				}
			}
		}
	}
	JOINT RHipJoint
	{
		OFFSET 0.000000 0.000000 0.000000
		CHANNELS 3 Zrotation Yrotation Xrotation
		JOINT RightUpLeg
		{
			OFFSET -1.800000 -1.400000 0.085000
			CHANNELS 3 Zrotation Yrotation Xrotation
			JOINT RightLeg
			{
				OFFSET -2.215000 -6.000000 0.000000
				CHANNELS 3 Zrotation Yrotation Xrotation
				JOINT RightFoot
				{
					OFFSET -2.500000 -6.900000 0.000000
					CHANNELS 3 Zrotation Yrotation Xrotation
					JOINT RightToeBase
					{
						OFFSET -0.200000 -0.500000 1.950000
						CHANNELS 3 Zrotation Yrotation Xrotation
						End Site
						{
							OFFSET 0.000000 0.000000 0.000000
						}
					}
				}
			}
		}
	}
	JOINT LowerBack
	{
		OFFSET 0.000000 0.000000 0.000000
		CHANNELS 3 Zrotation Yrotation Xrotation
		JOINT Spine
		{
			OFFSET -0.087000 1.940000 -0.288900
			CHANNELS 3 Zrotation Yrotation Xrotation
			JOINT Spine1
			{
				OFFSET 0.000000 1.950000 0.060000
				CHANNELS 3 Zrotation Yrotation Xrotation
				JOINT Neck
				{
					OFFSET 0.000000 0.000000 0.000000
					CHANNELS 3 Zrotation Yrotation Xrotation
					JOINT Neck1
					{
						OFFSET 0.000000 1.600000 0.340000
						CHANNELS 3 Zrotation Yrotation Xrotation
						JOINT Head
						{
							OFFSET 0.000000 1.667000 -0.240000
							CHANNELS 3 Zrotation Yrotation Xrotation
							End Site
							{
								OFFSET 0.000000 0.000000 0.000000
							}
						}
					}
				}
				JOINT LeftShoulder
				{
					OFFSET 0.000000 0.000000 0.000000
					CHANNELS 3 Zrotation Yrotation Xrotation
					JOINT LeftArm
					{
						OFFSET 2.700000 1.550000 -0.730000
						CHANNELS 3 Zrotation Yrotation Xrotation
						JOINT LeftForeArm
						{
							OFFSET 5.450000 0.000000 0.000000
							CHANNELS 3 Zrotation Yrotation Xrotation
							JOINT LeftHand
							{
								OFFSET 3.450000 0.000000 0.000000
								CHANNELS 3 Zrotation Yrotation Xrotation
								JOINT LeftHandIndex1
								{
									OFFSET 0.750000 0.000000 0.000000
									CHANNELS 3 Zrotation Yrotation Xrotation
									End Site
									{
										OFFSET 0.000000 0.000000 0.000000
									}
								}
							}
						}
					}
				}
				JOINT RightShoulder
				{
					OFFSET 0.000000 0.000000 0.000000
					CHANNELS 3 Zrotation Yrotation Xrotation
					JOINT RightArm
					{
						OFFSET -2.700000 1.550000 -0.730000
						CHANNELS 3 Zrotation Yrotation Xrotation
						JOINT RightForeArm
						{
							OFFSET -5.450000 0.000000 0.000000
							CHANNELS 3 Zrotation Yrotation Xrotation
							JOINT RightHand
							{
								OFFSET -3.450000 0.000000 0.000000
								CHANNELS 3 Zrotation Yrotation Xrotation
								JOINT RightHandIndex1
								{
									OFFSET -0.750000 0.000000 0.000000
									CHANNELS 3 Zrotation Yrotation Xrotation
									End Site
									{
										OFFSET 0.000000 0.000000 0.000000
									}
								}
							}
						}
					}
				}
			}
		}
	}
}
MOTION
Frames: 9
Frame Time: 0.016667
2.857900 16.337250 -6.115430 -2.554120 -25.716396 -11.713211 -15.078376 11.118285 4.870129 2.183065 -3.716109 -36.357837 -25.749611 25.115344 48.087720 1.402510 12.005453 0.303497 0.857790 0.934770 0.628630 18.529769 -10.256153 3.492167 11.202646 1.780399 -1.227958 14.222609 -7.372976 18.729842 -1.337103 -4.719414 2.250659 0.369980 -0.097780 0.514350 -4.172640 0.575424 -8.985981 -5.437661 5.699789 30.263485 -15.440275 15.138994 22.158910 3.375771 -5.088971 -24.096952 -9.995453 5.703739 40.816602 1.273790 3.003050 -30.070090 -7.601116 -29.093604 9.214703 -6.579338 -5.126894 -1.849469 12.229816 -0.229899 -1.429757 -3.868355 2.691312 0.764740 -0.323800 0.762720 0.220730 2.939855 42.813331 15.964013 21.072336 34.992839 -2.009561 -15.557751 4.440491 -1.771530 2.744889 -1.420798 0.196480 0.256010 -0.211340 0.099360 
2.845450 16.308460 -6.141570 -3.171745 -26.112187 -11.418132 -15.029373 11.028438 4.749816 1.565104 -3.919266 -35.201789 -24.953496 24.568518 48.135950 1.352105 11.870738 0.330417 0.860740 0.908910 0.633320 18.584970 -10.361981 3.555716 11.826940 1.975089 -1.322878 14.584787 -7.540402 19.202256 -1.366083 -4.809220 2.192790 0.355160 -0.108400 0.540510 -4.367880 0.999303 -8.880519 -5.345145 5.636269 30.375741 -15.890233 15.296430 21.059153 2.934681 -4.856703 -22.784788 -9.163415 5.454806 39.343739 1.858970 3.125350 -30.597100 -7.661100 -28.336513 9.463422 -7.093387 -4.531824 -1.780867 12.245798 0.312644 -1.434430 -3.860186 2.737213 0.793840 -0.337700 0.764920 0.210970 3.770943 41.623962 15.336187 25.708522 30.848867 -1.111741 -14.891632 3.776601 -1.421411 2.693023 -1.446174 0.197230 0.220930 -0.198210 0.085550 
2.822320 16.285250 -6.173020 -4.284025 -26.379791 -11.413276 -14.960599 10.884521 4.617188 1.855059 -3.985548 -33.422341 -24.815370 24.312284 48.059727 1.324341 11.767400 0.376563 0.889620 0.972420 0.612640 18.668168 -10.468743 3.640344 12.821218 1.882290 -0.734524 15.008549 -7.686903 19.238987 -1.410228 -4.898965 2.187369 0.405440 -0.097210 0.467690 -4.654525 1.486781 -8.797711 -4.689116 4.913028 30.977542 -16.147967 15.213161 20.579122 1.994936 -5.225021 -21.178989 -9.496811 5.029041 38.038723 3.871010 2.527200 -31.435110 -5.623855 -27.122000 9.605843 -9.252073 -4.784549 -1.476105 12.046164 0.964859 -1.338024 -3.783742 2.719952 0.812450 -0.370480 0.760210 0.248390 3.579210 40.332106 15.021334 29.769198 26.570935 -1.027343 -14.936519 3.943528 -1.379909 2.629194 -1.453064 0.162270 0.288260 -0.228760 0.102970 
2.802780 16.265110 -6.201630 -5.469254 -27.515045 -12.105690 -14.901077 10.907634 4.463746 2.467516 -3.682398 -30.597296 -24.806392 24.115706 47.615375 1.283206 11.745658 0.464338 0.748340 0.766030 0.623370 18.709427 -10.565063 3.793091 14.224726 1.445504 0.821087 14.494649 -7.724787 18.895585 -1.406765 -4.898067 2.246410 0.311140 -0.042850 0.360610 -4.840953 1.762708 -8.766243 -4.516242 4.638876 32.904234 -16.079050 15.009329 18.602687 1.382872 -5.446852 -21.038876 -10.218216 5.598825 38.909540 3.154970 3.498570 -31.677640 -5.754383 -26.643701 9.994162 -10.365482 -3.689055 -1.408417 11.738101 2.272242 -1.224063 -3.786850 2.503984 0.902970 -0.378750 0.718490 0.202770 4.971292 39.350958 15.431283 33.675001 20.409403 -2.645313 -16.193050 4.861517 -1.536197 2.572910 -1.333734 0.008970 0.417110 -0.182150 0.037600 
2.781630 16.245160 -6.231050 -6.444275 -28.537910 -12.147666 -14.890051 10.889649 4.401222 2.993729 -3.633317 -29.069077 -25.271614 24.075992 47.139644 1.381712 11.726218 0.530782 0.627150 0.642660 0.543590 18.719449 -10.582622 3.875632 15.134820 1.264779 1.606341 14.568651 -7.892355 18.929608 -1.401154 -4.982937 2.273932 0.209550 0.014600 0.363170 -4.912860 1.907212 -8.742472 -4.761361 4.693264 34.188607 -16.002431 14.664412 16.515653 1.190470 -5.486579 -20.793397 -10.426718 5.480410 38.086333 2.203370 3.712270 -30.613230 -5.772334 -25.749621 10.112864 -11.938929 -2.736484 -1.654515 12.472887 2.784383 -1.113698 -3.815027 2.504270 0.863470 -0.336460 0.688730 0.195140 5.313256 37.994800 15.915331 37.389011 14.535659 -3.916411 -16.582584 5.803221 -1.565085 2.547621 -1.297089 0.004790 0.416300 -0.145050 0.062200 
2.762430 16.214580 -6.272860 -8.561919 -29.819096 -11.466044 -14.814618 10.878772 4.185149 3.622787 -3.416223 -27.483104 -23.026575 22.556043 46.966082 1.244326 11.423179 0.679189 0.497980 0.488990 0.423940 18.792044 -10.712113 4.049127 17.653876 1.344010 1.699669 12.245502 -7.702383 21.023647 -1.367860 -5.042041 2.308272 0.146580 0.175440 0.328810 -5.216172 2.338586 -8.654038 -3.528008 3.522860 35.868752 -16.826480 13.871159 13.466824 0.279946 -5.736736 -19.554704 -10.476708 6.127644 35.585341 4.972670 3.905520 -29.604300 -4.521768 -23.339301 9.616271 -14.655645 -2.697384 -1.546387 12.862803 3.049467 -1.074764 -3.859438 2.451096 0.869330 -0.277370 0.600590 0.210290 5.636093 34.662519 15.709535 39.362536 10.215409 -4.651509 -15.679911 6.575210 -1.376771 2.500497 -1.180504 -0.093500 0.515220 -0.064300 0.082850 
2.729630 16.187550 -6.305320 -9.752649 -31.147434 -11.367431 -14.741597 10.801057 3.925412 4.270343 -3.046935 -25.948129 -20.435900 21.151257 47.326015 1.114510 11.037279 0.742154 0.561070 0.597800 0.390550 18.865557 -10.931680 4.221980 19.774811 1.176361 2.210179 9.890042 -7.324614 22.402931 -1.398262 -5.149977 2.242307 0.216230 0.164160 0.358590 -5.575440 3.092050 -8.499911 -3.028132 2.745060 37.588979 -18.305014 13.326358 10.770374 -0.252063 -5.379898 -17.510817 -8.819952 6.422562 31.766366 6.143050 4.397410 -29.673450 -1.195474 -19.290961 8.040222 -18.026289 -4.921461 -1.430135 13.935264 3.429668 -1.022253 -3.870984 2.605724 0.823680 -0.265960 0.594540 0.236690 2.876844 30.130394 14.777318 42.287567 8.821165 -3.994494 -12.649431 5.917566 -0.823248 2.496342 -1.217165 -0.047000 0.454050 -0.082720 0.109460 
2.707550 16.168870 -6.337130 -10.486050 -33.151445 -12.518160 -14.737391 11.014221 3.680642 4.476155 -2.499083 -23.134554 -18.578369 20.187757 47.345893 1.112105 10.811033 0.855384 0.485090 0.513880 0.387070 18.842381 -10.969159 4.391318 20.878881 0.609335 4.303321 8.602525 -7.256346 22.610012 -1.400316 -5.318640 2.221729 0.163400 0.206770 0.367520 -5.664528 3.025750 -8.380387 -3.373694 1.430375 38.564869 -20.218048 12.869779 11.509148 1.454767 -5.951852 -19.131877 -9.809966 8.542399 30.613190 2.671370 6.467120 -26.313210 0.551992 -18.738645 8.687575 -20.124757 -1.566132 -1.984872 14.267273 3.803717 -0.872201 -3.946483 2.606689 0.746650 -0.186950 0.552100 0.218540 -1.969581 30.823890 15.635652 41.805736 8.125014 -2.330327 -5.648073 3.560827 0.151609 2.539470 -1.113085 -0.052680 0.436220 -0.070790 0.105840 
2.680860 16.135940 -6.362730 -11.690907 -35.207534 -13.591035 -14.713783 11.131168 3.380982 5.476706 -1.725652 -19.812163 -16.881402 19.238203 47.083148 0.979713 10.594472 0.942624 0.532890 0.547710 0.433890 18.842150 -11.104082 4.583782 21.675460 0.292681 6.606380 9.020478 -7.621521 22.990306 -1.463436 -5.673854 2.098036 0.237780 0.252640 0.356370 -5.914499 3.374367 -8.225045 -2.967058 0.141209 40.918394 -21.162035 11.672178 9.577165 1.840679 -7.063447 -18.633238 -11.184615 10.299858 27.421034 1.446520 7.401760 -24.499250 3.512356 -14.397759 6.800863 -24.563024 -3.436035 -1.621478 14.446326 5.568534 -0.677643 -4.023422 2.621691 0.717390 -0.137420 0.502260 0.243420 -5.702555 28.037509 15.419454 39.072034 8.304664 -0.970172 2.552720 -0.154235 0.086078 2.555619 -0.994470 -0.101190 0.462630 -0.098020 0.092450 
